HIERARCHY
ROOT Hips
{
	OFFSET 0.000000 0.000000 0.000000
	CHANNELS 6 Xposition Yposition Zposition Zrotation Yrotation Xrotation 
	JOINT LowerBack
	{
		OFFSET 0.000000 0.000000 0.000000
		CHANNELS 3 Zrotation Yrotation Xrotation
		JOINT Spine
		{
			OFFSET 0.028270 2.035590 -0.193380
			CHANNELS 3 Zrotation Yrotation Xrotation
			JOINT Spine1
			{
				OFFSET 0.056720 2.048850 -0.042750
				CHANNELS 3 Zrotation Yrotation Xrotation
				JOINT Neck
				{
					OFFSET 0.000000 0.000000 0.000000
					CHANNELS 3 Zrotation Yrotation Xrotation
					JOINT Neck1
					{
						OFFSET -0.054170 1.746240 0.172020
						CHANNELS 3 Zrotation Yrotation Xrotation
						JOINT Head
						{
							OFFSET 0.104070 1.761360 -0.123970
							CHANNELS 3 Zrotation Yrotation Xrotation
							End Site
							{
								OFFSET 0.000000 0.000000 0.000000
							}
						}
					}
				}
				JOINT LeftShoulder
				{
					OFFSET 0.000000 0.000000 0.000000
					CHANNELS 3 Zrotation Yrotation Xrotation
					JOINT LeftArm
					{
						OFFSET 3.362410 1.200890 -0.311210
						CHANNELS 3 Zrotation Yrotation Xrotation
						JOINT LeftForeArm
						{
							OFFSET 4.983000 -0.000000 -0.000000
							CHANNELS 3 Zrotation Yrotation Xrotation
							JOINT LeftHand
							{
								OFFSET 3.483560 -0.000000 -0.000000
								CHANNELS 3 Zrotation Yrotation Xrotation
								JOINT LeftFingerBase
								{
									OFFSET 0.000000 0.000000 0.000000
									CHANNELS 3 Zrotation Yrotation Xrotation
									JOINT LeftHandIndex1
									{
										OFFSET 0.715260 -0.000000 -0.000000
										CHANNELS 3 Zrotation Yrotation Xrotation
										End Site
										{
											OFFSET 0.000000 0.000000 0.000000
										}
									}
								}
								JOINT LThumb
								{
									OFFSET 0.000000 0.000000 0.000000
									CHANNELS 3 Zrotation Yrotation Xrotation
									End Site
									{
										OFFSET 0.000000 0.000000 0.000000
									}
								}
							}
						}
					}
				}
				JOINT RightShoulder
				{
					OFFSET 0.000000 0.000000 0.000000
					CHANNELS 3 Zrotation Yrotation Xrotation
					JOINT RightArm
					{
						OFFSET -3.136600 1.374050 -0.404650
						CHANNELS 3 Zrotation Yrotation Xrotation
						JOINT RightForeArm
						{
							OFFSET -5.241900 -0.000000 -0.000000
							CHANNELS 3 Zrotation Yrotation Xrotation
							JOINT RightHand
							{
								OFFSET -3.444170 -0.000000 -0.000000
								CHANNELS 3 Zrotation Yrotation Xrotation
								JOINT RightFingerBase
								{
									OFFSET 0.000000 0.000000 0.000000
									CHANNELS 3 Zrotation Yrotation Xrotation
									JOINT RightHandIndex1
									{
										OFFSET -0.622530 -0.000000 -0.000000
										CHANNELS 3 Zrotation Yrotation Xrotation
										End Site
										{
											OFFSET 0.000000 0.000000 0.000000
										}
									}
								}
								JOINT RThumb
								{
									OFFSET 0.000000 0.000000 0.000000
									CHANNELS 3 Zrotation Yrotation Xrotation
									End Site
									{
										OFFSET 0.000000 0.000000 0.000000
									}
								}
							}
						}
					}
				}
			}
		}
	}
}
}
MOTION
Frames: 6
Frame Time: 0.008333
11.799216 12.337465 2.905861 130.167917 -87.280829 -39.524893 1.732838 -2.272740 -3.104607 -0.423070 -2.499568 -2.919465 -3.991558 -2.718983 0.621260 10.094382 -13.773215 -15.247543 -1.512700 0.071666 -3.736067 0.000000 0.000000 0.000000 -4.852206 19.542662 5.234810 -70.070031 26.651667 -13.415504 0.730096 -12.157241 -0.007972 2.899177 -4.663406 -0.120637 0.017310 0.128758 0.000000 0.000000 0.000000 0.000000 0.000000 0.000000 0.000000 17.624862 -11.656456 4.876947 62.719989 -24.271029 -35.433881 -0.800907 3.825354 -0.012434 -1.130422 19.081658 -0.190439 -0.019240 -0.325580 0.000000 0.000000 0.000000 0.000000 0.000000 0.000000 0.000000 
11.768780 12.316071 2.908241 130.652919 -87.270701 -39.838755 1.741754 -2.276405 -3.197682 -0.427476 -2.509033 -2.953037 -4.011309 -2.730172 0.611568 10.120681 -13.807895 -15.272681 -1.529095 0.070475 -3.744947 0.000000 0.000000 0.000000 -5.009670 19.589221 5.227916 -70.023422 26.475715 -13.180091 0.727634 -12.350880 -0.007875 2.802537 -4.560379 -0.114036 0.019259 0.128683 0.000000 0.000000 0.000000 0.000000 0.000000 0.000000 0.000000 17.737608 -11.686883 4.871456 62.731587 -24.002231 -35.259283 -0.808247 4.057183 -0.012582 -1.213395 18.983021 -0.203742 -0.018328 -0.326816 0.000000 0.000000 0.000000 0.000000 0.000000 0.000000 0.000000 
11.737385 12.295034 2.910431 131.121945 -87.255742 -40.140444 1.748683 -2.280910 -3.291676 -0.432642 -2.519377 -2.988076 -4.031297 -2.742252 0.599062 10.149152 -13.849687 -15.300991 -1.544876 0.069413 -3.754879 0.000000 0.000000 0.000000 -5.171410 19.624612 5.220738 -69.970221 26.286851 -12.905547 0.723867 -12.579829 -0.007791 2.713295 -4.457110 -0.107835 0.021106 0.128851 0.000000 0.000000 0.000000 0.000000 0.000000 0.000000 0.000000 17.850558 -11.722972 4.866645 62.753828 -23.719797 -35.025462 -0.814259 4.333038 -0.012720 -1.305891 18.852023 -0.218142 -0.017234 -0.327914 0.000000 0.000000 0.000000 0.000000 0.000000 0.000000 0.000000 
11.705032 12.274449 2.912351 131.560782 -87.235911 -40.418881 1.751668 -2.286045 -3.385250 -0.439265 -2.530296 -3.024141 -4.051496 -2.754898 0.583834 10.183294 -13.902808 -15.333289 -1.559462 0.068559 -3.766110 0.000000 0.000000 0.000000 -5.331743 19.645988 5.213333 -69.914941 26.081828 -12.605013 0.719463 -12.842685 -0.007735 2.640338 -4.358839 -0.102634 0.022741 0.129321 0.000000 0.000000 0.000000 0.000000 0.000000 0.000000 0.000000 17.965647 -11.769179 4.862655 62.783427 -23.417030 -34.714750 -0.818042 4.643051 -0.012838 -1.402953 18.701887 -0.232942 -0.016002 -0.328952 0.000000 0.000000 0.000000 0.000000 0.000000 0.000000 0.000000 
11.671651 12.253938 2.914232 131.879335 -87.217964 -40.579696 1.759252 -2.290848 -3.484567 -0.444494 -2.541264 -3.063350 -4.072753 -2.767693 0.566463 10.223003 -13.966856 -15.369189 -1.572815 0.067895 -3.778298 0.000000 0.000000 0.000000 -5.490617 19.652617 5.205405 -69.861247 25.862229 -12.293031 0.715011 -13.139603 -0.007721 2.589198 -4.269533 -0.098634 0.024094 0.130126 0.000000 0.000000 0.000000 0.000000 0.000000 0.000000 0.000000 18.080855 -11.825766 4.859323 62.813471 -23.090901 -34.330656 -0.818401 4.973258 -0.012924 -1.495458 18.551850 -0.246644 -0.014704 -0.330090 0.000000 0.000000 0.000000 0.000000 0.000000 0.000000 0.000000 
11.637069 12.233790 2.915722 132.238233 -87.193836 -40.787455 1.758750 -2.296788 -3.587528 -0.453147 -2.553515 -3.105031 -4.095882 -2.781819 0.546792 10.274619 -14.034016 -15.408399 -1.587333 0.067175 -3.791363 0.000000 0.000000 0.000000 -5.642128 19.642868 5.197122 -69.811251 25.624801 -11.987508 0.710646 -13.468319 -0.007759 2.559984 -4.198136 -0.095833 0.025177 0.131322 0.000000 0.000000 0.000000 0.000000 0.000000 0.000000 0.000000 18.210636 -11.884688 4.855649 62.842822 -22.749408 -33.875668 -0.815497 5.333755 -0.012987 -1.584306 18.406352 -0.259644 -0.013347 -0.331391 0.000000 0.000000 0.000000 0.000000 0.000000 0.000000 0.000000 
